<svg width="16" height="13" viewBox="0 0 16 13" fill="none" xmlns="http://www.w3.org/2000/svg">
<path d="M0 1.33333C0 0.597222 0.597222 0 1.33333 0H4C4.73611 0 5.33333 0.597222 5.33333 1.33333V1.77778H10.6667V1.33333C10.6667 0.597222 11.2639 0 12 0H14.6667C15.4028 0 16 0.597222 16 1.33333V4C16 4.73611 15.4028 5.33333 14.6667 5.33333H12C11.2639 5.33333 10.6667 4.73611 10.6667 4V3.55556H5.33333V4C5.33333 4.04722 5.33056 4.09444 5.325 4.13889L7.55556 7.11111H10.2222C10.9583 7.11111 11.5556 7.70833 11.5556 8.44444V11.1111C11.5556 11.8472 10.9583 12.4444 10.2222 12.4444H7.55556C6.81944 12.4444 6.22222 11.8472 6.22222 11.1111V8.44444C6.22222 8.39722 6.225 8.35 6.23056 8.30556L4 5.33333H1.33333C0.597222 5.33333 0 4.73611 0 4V1.33333Z" fill="white"/>
</svg>
