<svg width="36" height="48" viewBox="0 0 36 48" fill="none" xmlns="http://www.w3.org/2000/svg">
<path d="M1.3125 8.98054C1.3125 4.02072 5.33323 0 10.2931 0H25.7026C30.6624 0 34.6832 4.02072 34.6832 8.98054C34.6832 12.1211 33.0711 14.8853 30.6292 16.4903C33.0711 18.0955 34.6832 20.8596 34.6832 24.0002C34.6832 28.96 30.6624 32.9808 25.7026 32.9808H25.5076C23.1824 32.9808 21.0636 32.0971 19.4687 30.6472V38.9219C19.4687 43.9478 15.3428 48 10.3415 48C5.39401 48 1.3125 43.9915 1.3125 39.0194C1.3125 35.879 2.92448 33.115 5.36618 31.5098C2.92448 29.9047 1.3125 27.1406 1.3125 24.0002C1.3125 20.8596 2.92463 18.0955 5.36648 16.4903C2.92463 14.8853 1.3125 12.1211 1.3125 8.98054ZM16.527 17.9613H10.2931C6.95786 17.9613 4.25417 20.665 4.25417 24.0002C4.25417 27.3225 6.93701 30.0182 10.2545 30.039C10.2673 30.0389 10.2802 30.0389 10.2931 30.0389H16.527V17.9613ZM19.4687 24.0002C19.4687 27.3353 22.1723 30.0391 25.5076 30.0391H25.7026C29.0378 30.0391 31.7415 27.3353 31.7415 24.0002C31.7415 20.665 29.0378 17.9613 25.7026 17.9613H25.5076C22.1723 17.9613 19.4687 20.665 19.4687 24.0002ZM10.2931 32.9808C10.2802 32.9808 10.2673 32.9807 10.2545 32.9807C6.93701 33.0014 4.25417 35.6971 4.25417 39.0194C4.25417 42.3424 6.99398 45.0583 10.3415 45.0583C13.7429 45.0583 16.527 42.2987 16.527 38.9219V32.9808H10.2931ZM10.2931 2.94167C6.95786 2.94167 4.25417 5.64537 4.25417 8.98054C4.25417 12.3157 6.95786 15.0194 10.2931 15.0194H16.527V2.94167H10.2931ZM19.4687 15.0194H25.7026C29.0378 15.0194 31.7415 12.3157 31.7415 8.98054C31.7415 5.64537 29.0378 2.94167 25.7026 2.94167H19.4687V15.0194Z" fill="#EF4444"/>
</svg>
