<svg width="18" height="15" viewBox="0 0 18 15" fill="none" xmlns="http://www.w3.org/2000/svg">
<path d="M11.0477 0.0352751C10.5695 -0.102548 10.0716 0.175911 9.93383 0.654074L6.33354 13.2551C6.19572 13.7332 6.47418 14.2311 6.95234 14.3689C7.4305 14.5067 7.92836 14.2283 8.06618 13.7501L11.6665 1.14911C11.8043 0.67095 11.5258 0.173098 11.0477 0.0352751ZM13.3147 3.41335C12.9631 3.76494 12.9631 4.33592 13.3147 4.68752L15.8265 7.20209L13.3119 9.71666C12.9603 10.0683 12.9603 10.6392 13.3119 10.9908C13.6635 11.3424 14.2345 11.3424 14.5861 10.9908L17.7363 7.84058C18.0879 7.48899 18.0879 6.918 17.7363 6.56641L14.5861 3.41617C14.2345 3.06458 13.6635 3.06458 13.3119 3.41617L13.3147 3.41335ZM4.6881 3.41335C4.33651 3.06176 3.76553 3.06176 3.41394 3.41335L0.263693 6.5636C-0.0878975 6.91519 -0.0878975 7.48617 0.263693 7.83776L3.41394 10.988C3.76553 11.3396 4.33651 11.3396 4.6881 10.988C5.03969 10.6364 5.03969 10.0654 4.6881 9.71385L2.17353 7.20209L4.6881 4.68752C5.03969 4.33592 5.03969 3.76494 4.6881 3.41335Z" fill="white"/>
</svg>
