<svg width="18" height="12" viewBox="0 0 18 12" fill="none" xmlns="http://www.w3.org/2000/svg">
<path d="M7.25 5.05625C8.24375 4.58125 8.7625 3.8625 8.7625 2.74375C8.7625 0.5375 7.11875 0 5.22188 0H0V11.075H5.36875C7.38125 11.075 9.27188 10.1094 9.27188 7.85938C9.27188 6.46875 8.6125 5.44062 7.25 5.05625ZM2.43438 1.89062H4.71875C5.59688 1.89062 6.3875 2.1375 6.3875 3.15625C6.3875 4.09687 5.77187 4.475 4.90312 4.475H2.43438V1.89062ZM5.0375 9.19375H2.43438V6.14375H5.0875C6.15938 6.14375 6.8375 6.59063 6.8375 7.725C6.8375 8.84375 6.02812 9.19375 5.0375 9.19375ZM16.2406 1.67187H11.75V0.58125H16.2406V1.67187ZM18 7.18125C18 4.80938 16.6125 2.83125 14.0969 2.83125C11.6531 2.83125 9.99375 4.66875 9.99375 7.075C9.99375 9.57187 11.5656 11.2844 14.0969 11.2844C16.0125 11.2844 17.2531 10.4219 17.85 8.5875H15.9062C15.6969 9.27188 14.8344 9.63438 14.1656 9.63438C12.875 9.63438 12.1969 8.87813 12.1969 7.59375H17.9813C17.9906 7.4625 18 7.32188 18 7.18125ZM12.2 6.20625C12.2719 5.15313 12.9719 4.49375 14.0281 4.49375C15.1344 4.49375 15.6906 5.14375 15.7844 6.20625H12.2Z" fill="#E5E7EB"/>
</svg>
