<svg width="13" height="9" viewBox="0 0 13 9" fill="none" xmlns="http://www.w3.org/2000/svg">
<path d="M0 3.375C0 1.51031 1.51031 0 3.375 0H3.6C4.09781 0 4.5 0.402187 4.5 0.9C4.5 1.39781 4.09781 1.8 3.6 1.8H3.375C2.50594 1.8 1.8 2.50594 1.8 3.375V3.6H3.6C4.59281 3.6 5.4 4.40719 5.4 5.4V7.2C5.4 8.19281 4.59281 9 3.6 9H1.8C0.807188 9 0 8.19281 0 7.2V6.3V5.4V3.375ZM7.2 3.375C7.2 1.51031 8.71031 0 10.575 0H10.8C11.2978 0 11.7 0.402187 11.7 0.9C11.7 1.39781 11.2978 1.8 10.8 1.8H10.575C9.70594 1.8 9 2.50594 9 3.375V3.6H10.8C11.7928 3.6 12.6 4.40719 12.6 5.4V7.2C12.6 8.19281 11.7928 9 10.8 9H9C8.00719 9 7.2 8.19281 7.2 7.2V6.3V5.4V3.375Z" fill="white"/>
</svg>
