<svg width="15" height="14" viewBox="0 0 15 14" fill="none" xmlns="http://www.w3.org/2000/svg">
<path d="M6.41847 1.16774L5.38747 1.55334C5.30543 1.58342 5.25073 1.66273 5.25073 1.75024C5.25073 1.83776 5.30543 1.91706 5.38747 1.94715L6.41847 2.33275L6.80407 3.36375C6.83416 3.44579 6.91346 3.50049 7.00098 3.50049C7.08849 3.50049 7.1678 3.44579 7.19788 3.36375L7.58348 2.33275L8.61448 1.94715C8.69653 1.91706 8.75122 1.83776 8.75122 1.75024C8.75122 1.66273 8.69653 1.58342 8.61448 1.55334L7.58348 1.16774L7.19788 0.136738C7.1678 0.0546951 7.08849 0 7.00098 0C6.91346 0 6.83416 0.0546951 6.80407 0.136738L6.41847 1.16774ZM1.26072 10.8132C0.749323 11.3246 0.749323 12.156 1.26072 12.6701L2.20695 13.6164C2.71835 14.1278 3.54971 14.1278 4.06385 13.6164L14.4915 3.18599C15.0029 2.67459 15.0029 1.84323 14.4915 1.32909L13.5452 0.385601C13.0338 -0.125799 12.2025 -0.125799 11.6883 0.385601L1.26072 10.8132ZM13.2526 2.25891L10.3811 5.1304L9.74394 4.4932L12.6154 1.62171L13.2526 2.25891ZM0.205107 3.20513C0.0820427 3.25163 0 3.36922 0 3.50049C0 3.63176 0.0820427 3.74935 0.205107 3.79584L1.75024 4.37561L2.33001 5.92075C2.3765 6.04381 2.4941 6.12585 2.62537 6.12585C2.75663 6.12585 2.87423 6.04381 2.92072 5.92075L3.50049 4.37561L5.04563 3.79584C5.16869 3.74935 5.25073 3.63176 5.25073 3.50049C5.25073 3.36922 5.16869 3.25163 5.04563 3.20513L3.50049 2.62537L2.92072 1.08023C2.87423 0.957165 2.75663 0.875122 2.62537 0.875122C2.4941 0.875122 2.3765 0.957165 2.33001 1.08023L1.75024 2.62537L0.205107 3.20513ZM9.83145 10.2061C9.70839 10.2526 9.62634 10.3702 9.62634 10.5015C9.62634 10.6327 9.70839 10.7503 9.83145 10.7968L11.3766 11.3766L11.9564 12.9217C12.0028 13.0448 12.1204 13.1268 12.2517 13.1268C12.383 13.1268 12.5006 13.0448 12.5471 12.9217L13.1268 11.3766L14.672 10.7968C14.795 10.7503 14.8771 10.6327 14.8771 10.5015C14.8771 10.3702 14.795 10.2526 14.672 10.2061L13.1268 9.62634L12.5471 8.08121C12.5006 7.95814 12.383 7.8761 12.2517 7.8761C12.1204 7.8761 12.0028 7.95814 11.9564 8.08121L11.3766 9.62634L9.83145 10.2061Z" fill="white"/>
</svg>
