<svg width="54" height="48" viewBox="0 0 54 48" fill="none" xmlns="http://www.w3.org/2000/svg">
<path d="M31.2656 18.8812C31.2656 16.8094 29.8031 15.6656 27.2344 15.6656H22.5094V22.3406H26.4938C29.5688 22.3313 31.2656 21.0937 31.2656 18.8812ZM48.4688 17.6813C47.5781 14.7844 47.4469 11.2312 47.55 8.48438C47.6531 5.625 45.4219 3 42.4219 3H11.5969C8.5875 3 6.36562 5.63438 6.46875 8.48438C6.5625 11.2312 6.44063 14.7844 5.55 17.6813C4.65 20.5875 3.14062 22.425 0.65625 22.6594V25.3313C3.13125 25.5656 4.65 27.4031 5.55 30.3094C6.44063 33.2062 6.57188 36.7594 6.46875 39.5062C6.36562 42.3656 8.59687 44.9906 11.5969 44.9906H42.4125C45.4219 44.9906 47.6438 42.3562 47.5406 39.5062C47.4469 36.7594 47.5688 33.2062 48.4594 30.3094C49.3594 27.4031 50.8688 25.5656 53.3438 25.3313V22.6594C50.8781 22.425 49.3594 20.5875 48.4688 17.6813ZM28.1438 35.1656H18.9656V12.825H28.0969C32.1563 12.825 34.8187 15.0187 34.8187 18.3937C34.8187 20.7656 33.0281 22.8844 30.7406 23.25V23.3719C33.8531 23.7094 35.9437 25.8656 35.9437 28.8375C35.9437 32.7844 33.0094 35.1656 28.1438 35.1656ZM27.2063 24.975H22.5094V32.325H27.4125C30.6187 32.325 32.3156 31.0406 32.3156 28.6219C32.3156 26.2125 30.5719 24.975 27.2063 24.975Z" fill="#A855F7"/>
</svg>
