<svg width="14" height="14" viewBox="0 0 14 14" fill="none" xmlns="http://www.w3.org/2000/svg">
<path d="M7 7.875C8.04429 7.875 9.04581 7.46016 9.78423 6.72173C10.5227 5.98331 10.9375 4.98179 10.9375 3.9375C10.9375 2.89321 10.5227 1.89169 9.78423 1.15327C9.04581 0.414843 8.04429 0 7 0C5.95571 0 4.95419 0.414843 4.21577 1.15327C3.47734 1.89169 3.0625 2.89321 3.0625 3.9375C3.0625 4.98179 3.47734 5.98331 4.21577 6.72173C4.95419 7.46016 5.95571 7.875 7 7.875ZM4.41055 8.75C1.97422 8.75 0 10.7242 0 13.1605C0 13.6254 0.377344 14 0.839453 14H13.1605C13.6254 14 14 13.6227 14 13.1605C14 10.7242 12.0258 8.75 9.58945 8.75H4.41055Z" fill="white"/>
</svg>
