<svg width="42" height="48" viewBox="0 0 42 48" fill="none" xmlns="http://www.w3.org/2000/svg">
<path d="M37.5 3H4.5C2.01562 3 0 5.01562 0 7.5V40.5C0 42.9844 2.01562 45 4.5 45H37.5C39.9844 45 42 42.9844 42 40.5V7.5C42 5.01562 39.9844 3 37.5 3ZM22.8563 35.7562C22.8563 39.8437 20.4562 41.7094 16.9594 41.7094C13.8 41.7094 11.9719 40.0781 11.0344 38.1L14.25 36.1594C14.8687 37.2563 15.4313 38.1844 16.7906 38.1844C18.0844 38.1844 18.9094 37.6781 18.9094 35.7V22.2844H22.8563V35.7562ZM32.1937 41.7094C28.5281 41.7094 26.1563 39.9656 25.0031 37.6781L28.2188 35.8219C29.0625 37.2 30.1687 38.2219 32.1094 38.2219C33.7406 38.2219 34.7906 37.4062 34.7906 36.2719C34.7906 34.9219 33.7219 34.4437 31.9125 33.6469L30.9281 33.225C28.0781 32.0156 26.1937 30.4875 26.1937 27.2719C26.1937 24.3094 28.4531 22.0594 31.9688 22.0594C34.4812 22.0594 36.2812 22.9313 37.575 25.2188L34.5 27.1875C33.825 25.9781 33.0937 25.5 31.9594 25.5C30.8062 25.5 30.075 26.2313 30.075 27.1875C30.075 28.3688 30.8063 28.8469 32.5031 29.5875L33.4875 30.0094C36.8438 31.4438 38.7281 32.9156 38.7281 36.2156C38.7281 39.7594 35.9344 41.7094 32.1937 41.7094Z" fill="#EAB308"/>
</svg>
