<svg width="48" height="48" viewBox="0 0 48 48" fill="none" xmlns="http://www.w3.org/2000/svg">
<path d="M0 9C0 5.69063 2.69063 3 6 3H42C45.3094 3 48 5.69063 48 9V39C48 42.3094 45.3094 45 42 45H6C2.69063 45 0 42.3094 0 39V9ZM30.3562 18.9844C29.9344 18.3656 29.2406 18 28.5 18C27.7594 18 27.0563 18.3656 26.6438 18.9844L18.4875 30.9469L16.0031 27.8438C15.5719 27.3094 14.925 27 14.25 27C13.575 27 12.9188 27.3094 12.4969 27.8438L6.49688 35.3438C5.95313 36.0187 5.85 36.9469 6.225 37.725C6.6 38.5031 7.3875 39 8.25 39H17.25H20.25H39.75C40.5844 39 41.3531 38.5406 41.7375 37.8C42.1219 37.0594 42.075 36.1688 41.6062 35.4844L30.3562 18.9844ZM10.5 18C11.6935 18 12.8381 17.5259 13.682 16.682C14.5259 15.8381 15 14.6935 15 13.5C15 12.3065 14.5259 11.1619 13.682 10.318C12.8381 9.47411 11.6935 9 10.5 9C9.30653 9 8.16193 9.47411 7.31802 10.318C6.47411 11.1619 6 12.3065 6 13.5C6 14.6935 6.47411 15.8381 7.31802 16.682C8.16193 17.5259 9.30653 18 10.5 18Z" fill="#2563EB"/>
</svg>
