<svg width="17" height="16" viewBox="0 0 17 16" fill="none" xmlns="http://www.w3.org/2000/svg">
<path d="M9.60254 11.4722C10.4556 11.3503 11.2243 10.866 11.7024 10.1316L16.7552 2.31647C17.149 1.70714 17.049 0.900936 16.5177 0.404091C15.9865 -0.0927535 15.1772 -0.136501 14.596 0.300973L7.19956 5.85063C6.44961 6.4131 6.00588 7.29117 5.99963 8.22861L9.60254 11.4722ZM8.99008 12.2659L5.3653 9.00357C3.49666 9.07231 1.99988 10.6128 1.99988 12.5002C1.99988 12.6221 2.00613 12.744 2.01863 12.8627C2.07487 13.4095 1.6999 14.0001 1.14993 14.0001H0.999939C0.446848 14.0001 0 14.447 0 15.0001C0 15.5532 0.446848 16 0.999939 16H5.49966C7.43392 16 8.99945 14.4345 8.99945 12.5002C8.99945 12.4221 8.99633 12.344 8.9932 12.2659H8.99008Z" fill="white"/>
</svg>
