<svg width="48" height="48" viewBox="0 0 48 48" fill="none" xmlns="http://www.w3.org/2000/svg">
<g clip-path="url(#clip0_4_1471)">
<path d="M27 3C27 4.65938 28.3406 6 30 6H33C34.6594 6 36 7.34062 36 9C36 10.6594 34.6594 12 33 12H3C1.34062 12 0 13.3406 0 15C0 16.6594 1.34062 18 3 18H33C37.9688 18 42 13.9688 42 9C42 4.03125 37.9688 0 33 0H30C28.3406 0 27 1.34062 27 3ZM33 36C33 37.6594 34.3406 39 36 39H39C43.9688 39 48 34.9688 48 30C48 25.0312 43.9688 21 39 21H3C1.34062 21 0 22.3406 0 24C0 25.6594 1.34062 27 3 27H39C40.6594 27 42 28.3406 42 30C42 31.6594 40.6594 33 39 33H36C34.3406 33 33 34.3406 33 36ZM12 48H15C19.9688 48 24 43.9688 24 39C24 34.0312 19.9688 30 15 30H3C1.34062 30 0 31.3406 0 33C0 34.6594 1.34062 36 3 36H15C16.6594 36 18 37.3406 18 39C18 40.6594 16.6594 42 15 42H12C10.3406 42 9 43.3406 9 45C9 46.6594 10.3406 48 12 48Z" fill="#06B6D4"/>
</g>
<defs>
<clipPath id="clip0_4_1471">
<rect width="48" height="48" fill="white"/>
</clipPath>
</defs>
</svg>
