<svg width="15" height="16" viewBox="0 0 15 16" fill="none" xmlns="http://www.w3.org/2000/svg">
<path d="M2.7 0.171875L1.93125 1.4875C1.8125 1.69062 1.75 1.925 1.75 2.1625V2.25C1.75 2.94062 2.30938 3.5 3 3.5C3.69062 3.5 4.25 2.94062 4.25 2.25V2.1625C4.25 1.925 4.1875 1.69375 4.06875 1.4875L3.3 0.171875C3.2375 0.065625 3.125 0 3 0C2.875 0 2.7625 0.065625 2.7 0.171875ZM6.7 0.171875L5.93125 1.4875C5.8125 1.69062 5.75 1.925 5.75 2.1625V2.25C5.75 2.94062 6.30937 3.5 7 3.5C7.69063 3.5 8.25 2.94062 8.25 2.25V2.1625C8.25 1.925 8.1875 1.69375 8.06875 1.4875L7.3 0.171875C7.2375 0.065625 7.125 0 7 0C6.875 0 6.7625 0.065625 6.7 0.171875ZM9.93125 1.4875C9.8125 1.69062 9.75 1.925 9.75 2.1625V2.25C9.75 2.94062 10.3094 3.5 11 3.5C11.6906 3.5 12.25 2.94062 12.25 2.25V2.1625C12.25 1.925 12.1875 1.69375 12.0688 1.4875L11.3 0.171875C11.2375 0.065625 11.125 0 11 0C10.875 0 10.7625 0.065625 10.7 0.171875L9.93125 1.4875ZM4 5.5C4 4.94688 3.55312 4.5 3 4.5C2.44688 4.5 2 4.94688 2 5.5V7C0.896875 7 0 7.89687 0 9V11.2188C0.259375 11.3813 0.565625 11.5 0.9 11.5C1.32187 11.5 1.75 11.3094 2.1 11.0813C2.26875 10.9719 2.40937 10.8594 2.50625 10.7781C2.55312 10.7375 2.59062 10.7031 2.61562 10.6812C2.62812 10.6687 2.6375 10.6625 2.64062 10.6562L2.64375 10.6531C2.74062 10.5531 2.875 10.5 3.01562 10.5031C3.15625 10.5063 3.28437 10.5688 3.37812 10.6719L3.38125 10.675C3.38437 10.6781 3.39375 10.6875 3.40313 10.6969C3.425 10.7188 3.45625 10.75 3.5 10.7906C3.5875 10.8719 3.7125 10.9812 3.86875 11.0875C4.1875 11.3094 4.5875 11.4969 5.00313 11.4969C5.41875 11.4969 5.81875 11.3094 6.1375 11.0875C6.29375 10.9781 6.41875 10.8719 6.50625 10.7906C6.55 10.75 6.58125 10.7188 6.60313 10.6969C6.6125 10.6875 6.62187 10.6781 6.625 10.675L6.62813 10.6719C6.72188 10.5625 6.85938 10.5031 7.00313 10.5031C7.14688 10.5031 7.28438 10.5656 7.37813 10.6719L7.38125 10.675C7.38438 10.6781 7.39375 10.6875 7.40312 10.6969C7.425 10.7188 7.45625 10.75 7.5 10.7906C7.5875 10.8719 7.7125 10.9812 7.86875 11.0875C8.1875 11.3094 8.5875 11.4969 9.00313 11.4969C9.41875 11.4969 9.81875 11.3094 10.1375 11.0875C10.2937 10.9781 10.4188 10.8719 10.5063 10.7906C10.55 10.75 10.5812 10.7188 10.6031 10.6969C10.6125 10.6875 10.6219 10.6781 10.625 10.675L10.6281 10.6719C10.7188 10.5656 10.85 10.5063 10.9906 10.5031C11.1313 10.5 11.2625 10.5531 11.3625 10.6531L11.3656 10.6562C11.3719 10.6625 11.3781 10.6687 11.3906 10.6812C11.4156 10.7031 11.45 10.7375 11.5 10.7781C11.5969 10.8594 11.7344 10.9719 11.9062 11.0813C12.2563 11.3094 12.6844 11.5 13.1062 11.5C13.4406 11.5 13.7469 11.3781 14.0063 11.2188V9C14.0063 7.89687 13.1094 7 12.0063 7V5.5C12.0063 4.94688 11.5594 4.5 11.0063 4.5C10.4531 4.5 10.0063 4.94688 10.0063 5.5V7H8V5.5C8 4.94688 7.55312 4.5 7 4.5C6.44688 4.5 6 4.94688 6 5.5V7H4V5.5ZM14 12.3313C13.7344 12.4344 13.4313 12.5 13.1 12.5C12.3969 12.5 11.775 12.1906 11.3562 11.9187C11.2281 11.8344 11.1125 11.75 11.0156 11.675C10.9281 11.75 10.825 11.8313 10.7094 11.9094C10.3063 12.1875 9.70625 12.5 9 12.5C8.29375 12.5 7.69375 12.1875 7.29375 11.9094C7.18437 11.8344 7.08437 11.7562 7 11.6844C6.91563 11.7562 6.81563 11.8313 6.70625 11.9094C6.30625 12.1875 5.70625 12.5 5 12.5C4.29375 12.5 3.69375 12.1875 3.29375 11.9094C3.17813 11.8281 3.075 11.7469 2.9875 11.675C2.89062 11.75 2.775 11.8344 2.64687 11.9187C2.225 12.1906 1.60312 12.5 0.9 12.5C0.56875 12.5 0.265625 12.4313 0 12.3313V15C0 15.5531 0.446875 16 1 16H13C13.5531 16 14 15.5531 14 15V12.3313Z" fill="#D946EF"/>
</svg>
