<svg width="60" height="48" viewBox="0 0 60 48" fill="none" xmlns="http://www.w3.org/2000/svg">
<path d="M28.2975 35.5234C28.2693 35.5796 28.2412 35.6246 28.2975 35.5234ZM51.6534 27.3671C49.7678 27.3665 47.9074 27.7995 46.2159 28.6327C45.6628 27.5171 45.0909 26.5421 44.9972 25.8109C44.8847 24.9577 44.7628 24.4515 44.894 23.439C45.0253 22.4265 45.6159 20.9921 45.6065 20.889C45.5972 20.7859 45.4753 20.2702 44.2659 20.2609C43.0565 20.2515 42.0159 20.4952 41.895 20.814C41.6814 21.3965 41.5152 21.9953 41.3981 22.6046C41.1825 23.7015 38.9803 27.6202 37.7334 29.664C37.3209 28.8671 36.974 28.164 36.899 27.6015C36.7865 26.7484 36.6647 26.2421 36.7959 25.2296C36.9272 24.2171 37.5178 22.7827 37.5084 22.6796C37.499 22.5765 37.3772 22.0609 36.1687 22.0515C34.9603 22.0421 33.9187 22.2859 33.7968 22.6046C33.675 22.9234 33.5437 23.6734 33.3 24.3952C33.0562 25.1171 30.1228 31.6421 29.355 33.339C28.9612 34.2015 28.6237 34.8952 28.38 35.364C28.3425 35.439 28.3143 35.4859 28.2956 35.5234C28.3237 35.4765 28.3425 35.4296 28.3425 35.4484C28.1362 35.8515 28.0143 36.0765 28.0143 36.0765V36.0859C27.855 36.3859 27.6768 36.6577 27.5925 36.6577C27.5362 36.6577 27.4143 35.8702 27.6206 34.7921C28.0612 32.5234 29.1018 28.9984 29.0925 28.8765C29.0831 28.8109 29.2893 28.2015 28.4081 27.8734C27.555 27.564 27.2456 28.0796 27.1706 28.0796C27.0956 28.0796 27.0393 28.2671 27.0393 28.2671C27.0393 28.2671 27.9862 24.2921 25.2215 24.2921C23.4965 24.2921 21.0965 26.1859 19.9172 27.9015C19.1765 28.3046 17.5734 29.1765 15.8859 30.1046C15.239 30.4609 14.5734 30.8265 13.9453 31.1734C13.8984 31.1265 13.8609 31.0796 13.814 31.0327C10.4587 27.4515 4.26372 24.9202 4.52622 20.1109C4.61997 18.3577 5.22935 13.7546 16.439 8.1671C25.6265 3.5921 32.9718 4.84835 34.2365 7.6421C36.0553 11.6265 30.3093 19.0421 20.7684 20.1109C17.1318 20.514 15.2203 19.1077 14.7422 18.5827C14.2453 18.0296 14.1703 18.0015 13.9828 18.1046C13.6734 18.2734 13.8703 18.7609 13.9828 19.0515C14.264 19.7921 15.4359 21.1046 17.4318 21.7609C19.185 22.3327 23.4487 22.6515 28.604 20.6546C34.3959 18.4234 38.9043 12.2077 37.5825 7.0046C36.2362 1.7171 27.4687 -0.0172729 19.1784 2.92648C14.2387 4.6796 8.89685 7.43585 5.05403 11.0265C0.489346 15.3015 -0.240966 19.0234 0.0590336 20.5796C1.12685 26.1015 8.73747 29.7015 11.7834 32.364C11.6334 32.4484 11.4928 32.5234 11.3615 32.5984C9.83435 33.3577 4.03216 36.3952 2.57997 39.6015C0.939346 43.239 2.85185 45.8452 4.10716 46.2015C8.02497 47.289 12.0365 45.3296 14.1918 42.114C16.3472 38.8984 16.0856 34.6984 15.0918 32.7859C15.0825 32.7577 15.0637 32.739 15.0543 32.7109C15.4481 32.4765 15.8512 32.2421 16.2543 32.0077C17.0315 31.5484 17.7909 31.1265 18.4565 30.7609C18.0815 31.7734 17.8097 32.9921 17.669 34.7546C17.5003 36.8171 18.3534 39.489 19.4597 40.539C19.9472 40.9984 20.5368 41.0077 20.9025 41.0077C22.1962 41.0077 22.7775 39.939 23.4234 38.664C24.2203 37.1077 24.9234 35.2984 24.9234 35.2984C24.9234 35.2984 24.0422 40.1921 26.4515 40.1921C27.3318 40.1921 28.2131 39.0577 28.6078 38.4765V38.4859C28.6078 38.4859 28.6265 38.4484 28.6734 38.3734C28.7672 38.2327 28.814 38.1484 28.814 38.1484V38.1202C29.1703 37.5109 29.9484 36.114 31.1193 33.8077C32.6381 30.8265 34.0903 27.1046 34.0903 27.1046C34.2306 27.9228 34.4248 28.7308 34.6715 29.5234C34.934 30.414 35.4872 31.389 35.9278 32.3359C35.5715 32.8234 35.3559 33.1046 35.3559 33.1046C35.3566 33.1118 35.3599 33.1185 35.3653 33.1234C35.084 33.4984 34.7653 33.9015 34.4372 34.2952C33.2381 35.7202 31.8122 37.3515 31.6247 37.8202C31.3997 38.3734 31.4559 38.7859 31.8872 39.1046C32.2059 39.3484 32.7684 39.3859 33.3581 39.339C34.4362 39.264 35.1956 39.0015 35.5612 38.8327C36.2353 38.591 36.8723 38.2566 37.454 37.839C38.6259 36.9765 39.3384 35.739 39.2728 34.1077C39.2353 33.2077 38.9447 32.3077 38.5884 31.464C38.6915 31.314 38.804 31.1546 38.9072 30.9952C40.7625 28.2859 42.1968 25.3121 42.1968 25.3121C42.3372 26.1303 42.5313 26.9383 42.7781 27.7309C43.0031 28.4902 43.4428 29.3246 43.8459 30.1402C42.1031 31.5559 41.025 33.1965 40.65 34.2746C39.9562 36.2715 40.5 37.1715 41.5218 37.3777C41.9812 37.4715 42.6375 37.2559 43.125 37.0496C43.849 36.8085 44.5316 36.4575 45.149 36.009C46.3209 35.1465 47.4543 33.9371 47.3793 32.2965C47.3512 31.5559 47.145 30.8152 46.8731 30.1027C48.345 29.484 50.2565 29.1465 52.694 29.4277C57.914 30.0371 58.9359 33.2996 58.739 34.659C58.5422 36.0184 57.4453 36.7777 57.0797 37.0027C56.714 37.2277 56.6015 37.3121 56.6297 37.4809C56.6765 37.7246 56.8453 37.7152 57.1547 37.659C57.5859 37.584 59.8912 36.5527 59.9943 34.0309C60.1443 30.8434 57.0797 27.3371 51.6506 27.3652L51.6534 27.3671ZM11.4178 40.9327C9.69372 42.8171 7.27497 43.5296 6.23528 42.9296C5.11966 42.2809 5.56028 39.5077 7.68747 37.4996C8.98122 36.2809 10.649 35.1559 11.7553 34.4621C12.0084 34.3121 12.374 34.0871 12.824 33.8152C12.899 33.7684 12.9365 33.7496 12.9365 33.7496C13.0209 33.6934 13.1147 33.6465 13.2084 33.5902C13.9856 36.4402 13.2365 38.9527 11.4178 40.9309V40.9327ZM24.014 32.364C23.414 33.8359 22.1493 37.5859 21.3806 37.389C20.7243 37.2202 20.3212 34.3609 21.2493 31.5484C21.7181 30.1327 22.7118 28.4452 23.3025 27.789C24.2484 26.7296 25.289 26.3921 25.5328 26.814C25.8609 27.3671 24.389 31.4452 24.014 32.364ZM34.4203 37.3327C34.1672 37.464 33.9328 37.5484 33.8203 37.4827C33.7359 37.4359 33.9234 37.2577 33.9234 37.2577C33.9234 37.2577 35.2265 35.8609 35.7422 35.2234C36.0422 34.8484 36.389 34.4077 36.7631 33.9202C36.7631 33.9671 36.7725 34.014 36.7725 34.0702C36.7603 35.7484 35.1487 36.8827 34.4175 37.3327H34.4203ZM42.4434 35.5046C42.2559 35.3734 42.284 34.9327 42.9122 33.564C43.1559 33.0296 43.7175 32.1296 44.6934 31.2671C44.8039 31.5936 44.8639 31.935 44.8715 32.2796C44.8622 34.389 43.3528 35.1765 42.4443 35.5046H42.4434Z" fill="#EC4899"/>
</svg>
