<svg width="16" height="16" viewBox="0 0 16 16" fill="none" xmlns="http://www.w3.org/2000/svg">
<path d="M16 8C16 8.02812 16 8.05625 16 8.08438C15.9875 9.225 14.95 10 13.8094 10H10.75C9.92188 10 9.25 10.6719 9.25 11.5C9.25 11.6062 9.2625 11.7094 9.28125 11.8094C9.34688 12.1281 9.48438 12.4344 9.61875 12.7437C9.80937 13.175 9.99687 13.6031 9.99687 14.0562C9.99687 15.05 9.32187 15.9531 8.32812 15.9937C8.21875 15.9969 8.10938 16 7.99687 16C3.58125 16 0 12.4187 0 8C0 3.58125 3.58125 0 8 0C12.4187 0 16 3.58125 16 8ZM4 9C4 8.73478 3.89464 8.48043 3.70711 8.29289C3.51957 8.10536 3.26522 8 3 8C2.73478 8 2.48043 8.10536 2.29289 8.29289C2.10536 8.48043 2 8.73478 2 9C2 9.26522 2.10536 9.51957 2.29289 9.70711C2.48043 9.89464 2.73478 10 3 10C3.26522 10 3.51957 9.89464 3.70711 9.70711C3.89464 9.51957 4 9.26522 4 9ZM4 6C4.26522 6 4.51957 5.89464 4.70711 5.70711C4.89464 5.51957 5 5.26522 5 5C5 4.73478 4.89464 4.48043 4.70711 4.29289C4.51957 4.10536 4.26522 4 4 4C3.73478 4 3.48043 4.10536 3.29289 4.29289C3.10536 4.48043 3 4.73478 3 5C3 5.26522 3.10536 5.51957 3.29289 5.70711C3.48043 5.89464 3.73478 6 4 6ZM9 3C9 2.73478 8.89464 2.48043 8.70711 2.29289C8.51957 2.10536 8.26522 2 8 2C7.73478 2 7.48043 2.10536 7.29289 2.29289C7.10536 2.48043 7 2.73478 7 3C7 3.26522 7.10536 3.51957 7.29289 3.70711C7.48043 3.89464 7.73478 4 8 4C8.26522 4 8.51957 3.89464 8.70711 3.70711C8.89464 3.51957 9 3.26522 9 3ZM12 6C12.2652 6 12.5196 5.89464 12.7071 5.70711C12.8946 5.51957 13 5.26522 13 5C13 4.73478 12.8946 4.48043 12.7071 4.29289C12.5196 4.10536 12.2652 4 12 4C11.7348 4 11.4804 4.10536 11.2929 4.29289C11.1054 4.48043 11 4.73478 11 5C11 5.26522 11.1054 5.51957 11.2929 5.70711C11.4804 5.89464 11.7348 6 12 6Z" fill="white"/>
</svg>
